<svg xmlns="http://www.w3.org/2000/svg" viewBox="0 0 64 64" role="img" aria-label="Reed-haired bog keeper with drums">
  <rect x="8" y="52" width="48" height="4" fill="#1a120b"/>
  <rect x="12" y="48" width="40" height="4" fill="#2a1d13"/>

  <rect x="20" y="4" width="4" height="12" fill="#7f903a"/>
  <rect x="26" y="2" width="4" height="14" fill="#a4a947"/>
  <rect x="34" y="3" width="4" height="13" fill="#7f903a"/>
  <rect x="40" y="6" width="4" height="10" fill="#5f7335"/>

  <rect x="18" y="14" width="28" height="24" fill="#173a31"/>
  <rect x="14" y="20" width="36" height="14" fill="#214f3b"/>
  <rect x="18" y="34" width="28" height="10" fill="#0d211c"/>
  <rect x="22" y="12" width="20" height="4" fill="#7f903a"/>
  <rect x="18" y="18" width="6" height="6" fill="#2d6a48"/>
  <rect x="40" y="18" width="6" height="6" fill="#2d6a48"/>

  <rect x="22" y="24" width="6" height="4" fill="#dfff67"/>
  <rect x="36" y="24" width="6" height="4" fill="#dfff67"/>
  <rect x="24" y="26" width="2" height="2" fill="#050706"/>
  <rect x="38" y="26" width="2" height="2" fill="#050706"/>
  <rect x="30" y="31" width="4" height="2" fill="#050706"/>
  <rect x="28" y="36" width="8" height="2" fill="#7f903a"/>

  <rect x="12" y="32" width="10" height="4" fill="#466126"/>
  <rect x="42" y="32" width="10" height="4" fill="#466126"/>
  <rect x="8" y="36" width="8" height="4" fill="#7f903a"/>
  <rect x="48" y="36" width="8" height="4" fill="#7f903a"/>

  <rect x="10" y="40" width="16" height="12" fill="#5a421e"/>
  <rect x="12" y="38" width="12" height="4" fill="#d2a548"/>
  <rect x="14" y="42" width="8" height="8" fill="#2a1d13"/>
  <rect x="16" y="44" width="4" height="4" fill="#46311f"/>

  <rect x="38" y="40" width="16" height="12" fill="#5a421e"/>
  <rect x="40" y="38" width="12" height="4" fill="#d2a548"/>
  <rect x="42" y="42" width="8" height="8" fill="#2a1d13"/>
  <rect x="44" y="44" width="4" height="4" fill="#46311f"/>

  <rect x="25" y="44" width="4" height="10" fill="#173a31"/>
  <rect x="35" y="44" width="4" height="10" fill="#173a31"/>
  <rect x="25" y="54" width="6" height="4" fill="#0a0d08"/>
  <rect x="33" y="54" width="6" height="4" fill="#0a0d08"/>
</svg>
